<svg width="40" height="42" viewBox="0 0 40 42" fill="none" xmlns="http://www.w3.org/2000/svg">
<path d="M18.8454 41.4689C17.9625 41.4689 17.1322 41.2157 16.3794 40.7196C16.0698 40.5156 16.0698 39.0944 16.0734 37.9546C16.0769 36.1886 16.0804 33.9899 15.3698 31.9777C14.6557 29.9549 13.2485 27.9814 11.6127 26.7009C8.13 23.9781 3.51102 22.4724 3.31402 22.4091C3.2894 22.4021 3.26125 22.395 3.23311 22.3915C1.66062 22.1453 0.520829 20.8085 0.527864 19.2184L0.556008 7.69734C0.559526 5.9771 1.76264 4.49607 3.47936 4.088C3.70099 4.03523 3.96835 4.00357 4.24978 3.96839C4.90762 3.88748 5.65341 3.7925 6.3394 3.40553C8.7597 2.03356 11.9469 1.57272 15.0321 1.28073C19.5138 0.858588 24.0695 0.738981 27.1054 0.714355C28.1608 0.714355 29.1212 1.11188 29.8423 1.83656C30.5635 2.55772 30.961 3.52162 30.961 4.5418L30.9434 19.3908C30.9399 22.2613 28.6005 24.5937 25.7334 24.5937H25.6877C25.6877 24.5937 23.1408 24.5058 23.1373 24.5058C22.9191 24.5058 22.7221 24.6429 22.6448 24.847C22.1206 26.2365 22.701 28.2804 23.3694 30.648C23.9358 32.6496 24.5198 34.7181 24.4459 36.4665C24.3333 38.9924 21.5612 41.4689 18.8454 41.4689Z" fill="url(#paint0_radial_1110_1019)"/>
<path d="M27.1334 1.23847C28.0164 1.23847 28.8431 1.58322 29.4658 2.20588C30.0884 2.82855 30.4297 3.65525 30.4297 4.53824L30.4121 19.3872C30.4086 21.9658 28.3084 24.066 25.7298 24.066H25.7087L23.1758 23.978H23.1371C22.7009 23.978 22.3034 24.2489 22.1486 24.6605C21.5646 26.2119 22.1626 28.3331 22.8592 30.7886C23.415 32.7481 23.9884 34.7779 23.9146 36.4419C23.816 38.6722 21.2586 40.9412 18.8453 40.9412C18.096 40.9412 17.3889 40.7337 16.7451 40.3256C16.5974 39.9738 16.6009 38.8129 16.6009 37.9545C16.6044 36.1499 16.6079 33.9019 15.8657 31.7983C15.1199 29.684 13.6494 27.619 11.9362 26.2822C8.37961 23.5031 3.67269 21.9658 3.47569 21.9025C3.42292 21.8849 3.37015 21.8743 3.31738 21.8638C2.00522 21.6562 1.05187 20.5411 1.05891 19.2113L1.08705 7.69025C1.09057 6.21626 2.12482 4.94279 3.60233 4.59452C3.79933 4.54879 4.0491 4.51713 4.31646 4.48195C4.98838 4.39752 5.82563 4.29198 6.59956 3.85577C8.93543 2.53305 12.0558 2.08628 15.0812 1.79781C19.5418 1.37567 24.0834 1.25958 27.1088 1.23495L27.1334 1.23847ZM27.1334 0.183105H27.0982C23.9181 0.207731 19.4117 0.334374 14.9791 0.753001C11.3979 1.09072 8.40775 1.62192 6.0754 2.94112C5.20297 3.43714 4.13705 3.38437 3.35608 3.57082C1.42477 4.02814 0.0352066 5.70617 0.0281709 7.69025L2.75706e-05 19.2148C-0.00700818 21.0547 1.3333 22.6272 3.15205 22.9121C3.15205 22.9121 7.83786 24.4213 11.2854 27.1195C12.58 28.1291 14.0821 29.9232 14.8701 32.1571C16.1858 35.879 14.951 40.41 16.0873 41.1628C16.9703 41.7468 17.9131 42.0001 18.8453 42.0001C21.9199 42.0001 24.8503 39.235 24.9699 36.4911C25.1388 32.625 22.2576 27.3693 23.1371 25.0334L25.684 25.1213H25.7263C28.8888 25.1213 31.4604 22.5568 31.4639 19.3907L31.4815 4.54175C31.4885 2.13201 29.5361 0.183105 27.1334 0.183105Z" fill="#EDA600"/>
<path d="M20.2771 21.526C20.9384 19.767 20.9455 17.0231 20.2771 15.3275C19.3097 12.879 16.9421 10.7366 14.2087 10.3602C13.5403 10.2688 13.9379 9.65313 14.6027 9.74459C17.5613 10.1527 21.5646 11.3523 22.6059 14.0083C25.4624 21.3078 22.1204 25.1318 20.6289 23.992C19.9112 23.4362 19.9042 22.5215 20.2771 21.526Z" fill="#EDA600"/>
<path d="M30.6582 26.1694C26.0427 26.1694 22.7641 25.3919 21.4343 23.9778C20.9242 23.4395 20.6991 22.8133 20.7448 22.0675C20.8961 19.4608 24.435 18.9155 27.3725 18.9155C30.6582 18.9155 33.9157 19.591 33.9474 19.598C33.972 19.605 34.0002 19.6085 34.0248 19.6085C35.5691 19.7 36.7406 21.2197 36.635 22.9963C36.533 24.7165 35.2842 26.0639 33.7891 26.0639C33.7398 26.0639 33.6941 26.0639 33.6448 26.0603H33.6132C33.5991 26.0603 33.5815 26.0603 33.5675 26.0639C33.5534 26.0603 32.3327 26.1694 30.6582 26.1694Z" fill="url(#paint1_radial_1110_1019)"/>
<path d="M27.3692 19.4435C30.5916 19.4435 33.8034 20.1084 33.8351 20.1155C33.8843 20.126 33.9371 20.133 33.9899 20.1366C34.5738 20.1717 35.1121 20.4672 35.5096 20.9738C35.9352 21.5156 36.1463 22.2262 36.1041 22.9685C36.0197 24.4073 35.003 25.5365 33.7858 25.5365C33.7471 25.5365 33.7084 25.5365 33.6732 25.533C33.6521 25.533 33.631 25.5295 33.6134 25.5295C33.5818 25.5295 33.5501 25.5295 33.5185 25.533C33.5079 25.533 32.3048 25.6385 30.6584 25.6385C26.254 25.6385 23.0317 24.8998 21.818 23.6122C21.4099 23.1795 21.234 22.6941 21.2692 22.0925C21.3044 21.5156 21.5155 20.6783 22.9613 20.0873C24.0167 19.6617 25.4977 19.4435 27.3692 19.4435ZM27.3692 18.3882C23.9182 18.3882 20.3862 19.1129 20.2139 22.0362C19.9782 26.0888 26.641 26.6974 30.6584 26.6974C32.3787 26.6974 33.6134 26.5848 33.6134 26.5848C33.6732 26.5884 33.7295 26.5884 33.7893 26.5884C35.5518 26.5884 37.0434 25.0335 37.1595 23.0247C37.2791 20.9527 35.8895 19.1867 34.0532 19.0777C34.0532 19.0812 30.7499 18.3882 27.3692 18.3882Z" fill="#EDA600"/>
<path d="M29.5748 19.6546C25.7368 19.6546 21.1636 19.0108 21.1636 15.9362C21.1636 12.8651 25.7368 12.2178 29.5748 12.2178C32.8324 12.2178 35.7944 12.6927 35.8226 12.6962C35.8507 12.6997 35.8789 12.7032 35.907 12.7032C37.388 12.7032 38.5384 14.5044 38.5384 16.0558C38.5384 17.5262 37.4584 19.1656 35.907 19.1656C35.8789 19.1656 35.8507 19.1691 35.8226 19.1726C35.7909 19.1797 32.8289 19.6546 29.5748 19.6546Z" fill="url(#paint2_radial_1110_1019)"/>
<path d="M29.5747 12.7487C32.783 12.7487 35.7098 13.2166 35.738 13.2201C35.7943 13.2307 35.8506 13.2342 35.9068 13.2342C37.0396 13.2342 38.0105 14.7856 38.0105 16.059C38.0105 17.2797 37.11 18.6412 35.9068 18.6412C35.8506 18.6412 35.7943 18.6447 35.738 18.6552C35.7098 18.6588 32.79 19.1266 29.5747 19.1266C27.172 19.1266 25.2618 18.8733 23.8933 18.3703C21.9198 17.6456 21.6911 16.6325 21.6911 15.9359C21.6911 15.2359 21.9198 14.2262 23.8933 13.5015C25.2582 13.002 27.172 12.7487 29.5747 12.7487ZM29.5747 11.6934C25.3778 11.6934 20.6357 12.4638 20.6357 15.9394C20.6357 19.4151 25.3743 20.1855 29.5747 20.1855C32.9131 20.1855 35.9068 19.7 35.9068 19.7C37.7221 19.7 39.0659 17.8602 39.0659 16.0626C39.0659 14.2649 37.7221 12.1823 35.9068 12.1823C35.9068 12.1788 32.9096 11.6934 29.5747 11.6934Z" fill="#EDA600"/>
<path d="M29.3286 7.1345C23.8197 7.1345 20.6606 6.07562 20.6536 4.22874C20.6536 3.74327 20.8435 3.31409 21.241 2.91657C23.5101 0.640504 31.0172 0.524414 32.4983 0.524414C32.7164 0.524414 32.843 0.527932 32.843 0.527932C34.5703 0.527932 35.9598 1.97378 35.9669 3.74679C35.9704 4.61219 35.6468 5.42833 35.0593 6.04044C34.4753 6.64904 33.7014 6.98323 32.8782 6.98675C32.8641 6.98675 32.8465 6.98675 32.8324 6.99027C32.8149 6.99379 31.2881 7.1345 29.3286 7.1345Z" fill="url(#paint3_radial_1110_1019)"/>
<path d="M32.498 1.05536C32.7091 1.05536 32.8287 1.05888 32.8322 1.05888H32.8639C34.2781 1.05888 35.4319 2.26903 35.4354 3.75357C35.439 4.48177 35.1681 5.16776 34.6756 5.68137C34.1936 6.18443 33.5534 6.46234 32.8744 6.46586C32.8428 6.46586 32.8111 6.46586 32.7795 6.46937C32.7654 6.46937 31.2668 6.61009 29.3319 6.61009C24.3119 6.61009 21.188 5.69896 21.1845 4.23201C21.1845 4.01741 21.2267 3.68673 21.6172 3.29625C22.6444 2.25848 26.1096 1.05536 32.498 1.05536ZM32.498 0C30.4365 0 20.1151 0.200519 20.1292 4.23201C20.1397 7.15536 25.5643 7.66193 29.3319 7.66193C31.3406 7.66193 32.878 7.5177 32.878 7.5177C34.8796 7.51067 36.4978 5.82208 36.4908 3.74654C36.4838 1.67451 34.862 0 32.8639 0H32.8533H32.498Z" fill="#EDA600"/>
<path d="M29.1315 12.9985C25.9724 12.9985 20.6675 12.5798 20.6675 9.79015C20.6675 6.46576 28.0198 6.10693 31.1824 6.10693C33.0223 6.10693 34.3731 6.21599 34.3872 6.21599H34.4294C36.0934 6.21599 37.6061 7.97493 37.6061 9.90976C37.6061 11.9536 35.8928 12.6783 34.4294 12.6783C34.4083 12.6783 34.3837 12.6783 34.3626 12.6818C34.3379 12.6924 31.9212 12.9985 29.1315 12.9985Z" fill="url(#paint4_radial_1110_1019)"/>
<path d="M31.1827 6.63788C32.9945 6.63788 34.3312 6.74694 34.3453 6.74694C34.3735 6.75045 34.4016 6.75045 34.4333 6.75045C35.7947 6.75045 37.0822 8.28777 37.0822 9.91654C37.0822 11.5699 35.7138 12.1574 34.4333 12.1574C34.3875 12.1574 34.3418 12.1609 34.2961 12.1645C34.2714 12.168 31.8863 12.474 29.1318 12.474C26.7362 12.474 24.8154 12.2524 23.4294 11.8162C21.199 11.1126 21.199 10.1206 21.199 9.79342C21.199 8.72398 22.2614 7.9008 24.3546 7.34146C26.5216 6.75749 29.2655 6.63788 31.1827 6.63788ZM31.1827 5.58252C26.9648 5.58252 20.1401 6.14538 20.1401 9.79342C20.1401 12.8891 25.0652 13.5294 29.1318 13.5294C31.9919 13.5294 34.4297 13.2128 34.4297 13.2128C36.4138 13.2128 38.1341 12.0871 38.1341 9.91654C38.1341 7.74601 36.4138 5.69509 34.4297 5.69509C34.4297 5.69509 33.0648 5.58252 31.1827 5.58252Z" fill="#EDA600"/>
<path d="M6.79318 3.09229L5.10812 9.74107L4.40454 3.76068L6.79318 3.09229Z" fill="#EDA600"/>
<defs>
<radialGradient id="paint0_radial_1110_1019" cx="0" cy="0" r="1" gradientUnits="userSpaceOnUse" gradientTransform="translate(15.2287 32.4681) rotate(-90.125) scale(30.6193 24.1066)">
<stop offset="0.6" stop-color="#FFCA28"/>
<stop offset="1" stop-color="#FFB300"/>
</radialGradient>
<radialGradient id="paint1_radial_1110_1019" cx="0" cy="0" r="1" gradientUnits="userSpaceOnUse" gradientTransform="translate(33.2439 22.8494) rotate(-176.727) scale(9.94562 4.86655)">
<stop offset="0.5993" stop-color="#FFCA28"/>
<stop offset="1" stop-color="#FFB300"/>
</radialGradient>
<radialGradient id="paint2_radial_1110_1019" cx="0" cy="0" r="1" gradientUnits="userSpaceOnUse" gradientTransform="translate(34.8143 16.0321) rotate(179.936) scale(11.1933 4.48867)">
<stop offset="0.5993" stop-color="#FFCA28"/>
<stop offset="1" stop-color="#FFB300"/>
</radialGradient>
<radialGradient id="paint3_radial_1110_1019" cx="0" cy="0" r="1" gradientUnits="userSpaceOnUse" gradientTransform="translate(32.65 3.90313) rotate(179.726) scale(9.40018 4.89398)">
<stop offset="0.5993" stop-color="#FFCA28"/>
<stop offset="1" stop-color="#FFB300"/>
</radialGradient>
<radialGradient id="paint4_radial_1110_1019" cx="0" cy="0" r="1" gradientUnits="userSpaceOnUse" gradientTransform="translate(33.9628 9.64332) rotate(179.934) scale(10.7098 4.45468)">
<stop offset="0.5993" stop-color="#FFCA28"/>
<stop offset="1" stop-color="#FFB300"/>
</radialGradient>
</defs>
</svg>
