<svg width="41" height="44" viewBox="0 0 41 44" fill="none" xmlns="http://www.w3.org/2000/svg">
<path d="M28.5356 43.0116C25.3728 42.9859 20.6267 42.8613 15.9576 42.4215C12.7435 42.1173 9.42309 41.6372 6.90162 40.2079C6.19063 39.8048 5.41366 39.7058 4.72466 39.6215C4.43146 39.5849 4.1566 39.5519 3.92204 39.4969C2.13356 39.0754 0.883823 37.5288 0.876493 35.7367L0.850839 23.7341C0.847174 22.0739 2.03094 20.6849 3.66916 20.4283C3.69848 20.4247 3.72414 20.4173 3.75346 20.41C3.95503 20.344 8.77073 18.7754 12.399 15.9388C14.1069 14.6048 15.5692 12.5488 16.3131 10.4414C17.0534 8.34142 17.0498 6.05085 17.0461 4.21106C17.0461 3.02363 17.0425 1.54666 17.365 1.33043C18.1493 0.813679 19.0142 0.549805 19.9341 0.549805C22.7634 0.549805 25.6514 3.13357 25.765 5.76499C25.8456 7.59012 25.2336 9.74509 24.6435 11.8268C23.9472 14.2933 23.3424 16.4226 23.8885 17.8702C23.9692 18.0864 24.1744 18.2257 24.4016 18.2257C24.4089 18.2257 27.0733 18.1341 27.0733 18.1341H27.099C30.0896 18.1341 32.5231 20.5676 32.5267 23.5545L32.5451 39.0241C32.5451 40.0906 32.1346 41.0911 31.3796 41.8425C30.6283 42.5938 29.6278 43.0116 28.5613 43.0116H28.5356Z" fill="url(#paint0_radial_1110_1004)"/>
<path d="M19.934 1.09948C22.4481 1.09948 25.1125 3.46701 25.2152 5.78691C25.2921 7.52408 24.6947 9.63507 24.1157 11.6764C23.39 14.2345 22.767 16.4445 23.3754 18.0607C23.5366 18.4895 23.9471 18.7717 24.4052 18.7717H24.4455L27.0843 18.6801H27.1063C29.7926 18.6801 31.9806 20.8644 31.9843 23.5544L32.0026 39.0241C32.0026 39.9403 31.6471 40.8052 30.9984 41.4539C30.3497 42.1026 29.4885 42.4618 28.5686 42.4618H28.5392C25.3874 42.4361 20.656 42.3115 16.0089 41.8754C12.857 41.5785 9.6026 41.1094 7.17276 39.7314C6.36647 39.2733 5.49422 39.167 4.79422 39.079C4.51569 39.0461 4.25548 39.0131 4.05025 38.9618C2.51098 38.5989 1.43349 37.2722 1.42983 35.7366L1.40051 23.734C1.39684 22.3487 2.38637 21.1869 3.75339 20.9743C3.80836 20.967 3.867 20.9523 3.91831 20.934C4.12354 20.8681 9.02721 19.2665 12.7324 16.3712C14.5173 14.9749 16.0492 12.8272 16.8262 10.6246C17.5995 8.43664 17.5958 6.09476 17.5921 4.21099C17.5921 3.31675 17.5885 2.10733 17.7424 1.74084C18.4167 1.31204 19.1534 1.09948 19.934 1.09948ZM19.934 0C18.9628 0 17.9806 0.263874 17.0607 0.872251C15.8733 1.65654 17.1597 6.37696 15.7926 10.2544C14.9717 12.5817 13.4068 14.4508 12.0581 15.5026C8.46647 18.3099 3.5848 19.8859 3.5848 19.8859C1.69004 20.1827 0.297368 21.8173 0.301033 23.7377L0.330352 35.7403C0.337682 37.8073 1.78533 39.5555 3.79737 40.0319C4.61098 40.2225 5.72145 40.1712 6.63035 40.6879C9.06019 42.0659 12.1754 42.6157 15.9063 42.9675C20.5241 43.4036 25.2152 43.5319 28.5319 43.5612H28.5686C31.0717 43.5612 33.1057 41.5309 33.1021 39.0241L33.0837 23.5544C33.0801 20.2523 30.401 17.5843 27.1063 17.5843H27.0623L24.4089 17.6759C23.4926 15.2424 26.4942 9.76701 26.3183 5.73926C26.19 2.87696 23.1371 0 19.934 0Z" fill="#EDA600"/>
<path d="M21.4255 21.3263C22.1145 23.1588 22.1218 26.0174 21.4255 27.7839C20.4176 30.3347 17.9512 32.5666 15.1035 32.9588C14.4072 33.054 14.8213 33.6954 15.514 33.6001C18.5962 33.175 22.7669 31.9253 23.8517 29.1582C26.8276 21.5535 23.3459 17.5698 21.792 18.7572C21.0443 19.3363 21.037 20.2891 21.4255 21.3263Z" fill="#EDA600"/>
<path d="M28.814 24.0458C25.7501 24.0458 22.0668 23.4778 21.9093 20.7621C21.8653 19.9851 22.0998 19.3327 22.6276 18.772C24.0166 17.2987 27.4286 16.4888 32.237 16.4888C33.9815 16.4888 35.2532 16.6024 35.2679 16.6024C35.2825 16.6024 35.3009 16.606 35.3155 16.606H35.3485C35.3998 16.6024 35.4475 16.6024 35.4988 16.6024C37.0564 16.6024 38.3574 18.006 38.4637 19.7982C38.5736 21.6526 37.3532 23.2359 35.7443 23.3275C35.7187 23.3275 35.6894 23.3312 35.6637 23.3385C35.6307 23.3422 32.237 24.0458 28.814 24.0458Z" fill="url(#paint1_radial_1110_1004)"/>
<path d="M32.2408 17.038C33.9559 17.038 35.2093 17.1479 35.2203 17.1479C35.2533 17.1516 35.2863 17.1516 35.3193 17.1516C35.3413 17.1516 35.3633 17.1516 35.3816 17.1479C35.4219 17.1442 35.4622 17.1442 35.4989 17.1442C36.7633 17.1442 37.8261 18.3207 37.9141 19.8196C37.958 20.5966 37.7381 21.3332 37.2947 21.8976C36.8805 22.4254 36.3161 22.7332 35.7114 22.7699C35.6565 22.7736 35.6015 22.7809 35.5502 22.7919C35.5172 22.7992 32.1711 23.4919 28.8141 23.4919C26.8643 23.4919 25.3177 23.2646 24.2219 22.8175C22.7156 22.2018 22.4921 21.3296 22.4591 20.7285C22.4224 20.1018 22.6057 19.5997 23.0308 19.1453C24.2952 17.8076 27.6523 17.038 32.2408 17.038ZM32.2408 15.9385C28.0554 15.9385 21.1141 16.5725 21.3596 20.7945C21.5392 23.8437 25.2188 24.595 28.8141 24.595C32.336 24.595 35.7774 23.873 35.7774 23.873C37.6905 23.7594 39.1418 21.9196 39.0135 19.761C38.8926 17.672 37.3387 16.0484 35.5025 16.0484C35.4402 16.0484 35.3816 16.0484 35.3193 16.0521C35.3193 16.0521 34.0329 15.9385 32.2408 15.9385Z" fill="#EDA600"/>
<path d="M31.1119 31.0196C27.1135 31.0196 22.3491 30.3489 22.3491 27.1458C22.3491 23.9427 27.1135 23.272 31.1119 23.272C34.502 23.272 37.5915 23.7667 37.6208 23.7704C37.6502 23.7741 37.6795 23.7777 37.7088 23.7777C39.325 23.7777 40.4502 25.4856 40.4502 27.0175C40.4502 28.6337 39.2517 30.5102 37.7088 30.5102C37.6795 30.5102 37.6502 30.5139 37.6208 30.5175C37.5879 30.5248 34.4983 31.0196 31.1119 31.0196Z" fill="url(#paint2_radial_1110_1004)"/>
<path d="M31.1119 23.8256C34.4543 23.8256 37.5035 24.313 37.5328 24.3167C37.5915 24.3276 37.6501 24.3313 37.7087 24.3313C38.9621 24.3313 39.9004 25.7533 39.9004 27.0214C39.9004 28.3444 38.8888 29.9643 37.7087 29.9643C37.6501 29.9643 37.5915 29.968 37.5328 29.979C37.5035 29.9826 34.4506 30.47 31.1119 30.47C28.6087 30.47 26.6187 30.2062 25.193 29.6821C23.137 28.9271 22.8988 27.8716 22.8988 27.146C22.8988 26.4166 23.137 25.3648 25.193 24.6098C26.615 24.0894 28.6087 23.8256 31.1119 23.8256ZM31.1119 22.7261C26.7396 22.7261 21.7993 23.5287 21.7993 27.1496C21.7993 30.7706 26.736 31.5732 31.1119 31.5732C34.5899 31.5732 37.7087 31.0674 37.7087 31.0674C39.5998 31.0674 40.9998 28.9015 40.9998 27.025C40.9998 25.1486 39.5998 23.2355 37.7087 23.2355C37.7087 23.2318 34.5862 22.7261 31.1119 22.7261Z" fill="#EDA600"/>
<path d="M34.1577 43.2018C32.6147 43.2018 24.7974 43.0809 22.4299 40.7097C22.0158 40.2955 21.8179 39.8484 21.8179 39.3427C21.8252 37.4186 25.12 36.3154 30.8556 36.3154C32.9006 36.3154 34.4838 36.462 34.5022 36.462C34.5168 36.462 34.5351 36.4657 34.5498 36.4657C35.4074 36.4694 36.2173 36.8175 36.822 37.4516C37.4341 38.0893 37.7676 38.9395 37.7676 39.8411C37.7603 41.6919 36.3126 43.1945 34.5388 43.1945C34.5132 43.2018 34.3849 43.2018 34.1577 43.2018Z" fill="url(#paint3_radial_1110_1004)"/>
<path d="M30.8592 36.869C32.8712 36.869 34.4361 37.0119 34.4508 37.0156C34.4838 37.0193 34.5168 37.0193 34.5497 37.0193C35.2571 37.0229 35.9241 37.3125 36.4262 37.8365C36.9393 38.3716 37.2215 39.0863 37.2178 39.8449C37.2141 41.3915 36.0121 42.6522 34.5278 42.6522H34.5241H34.5021C34.4948 42.6522 34.3702 42.6559 34.1539 42.6559C27.5021 42.6559 23.8885 41.3988 22.8147 40.325C22.4079 39.9182 22.3639 39.5737 22.3639 39.3502C22.3749 37.8182 25.6257 36.869 30.8592 36.869ZM30.8592 35.7695C26.9304 35.7695 21.2791 36.2973 21.2717 39.3428C21.2571 43.5428 32.01 43.7517 34.1576 43.7517C34.3958 43.7517 34.5278 43.7481 34.5278 43.7481H34.5388C36.6204 43.7481 38.31 42.0036 38.3173 39.8449C38.3246 37.6826 36.6388 35.9235 34.5534 35.9161C34.5534 35.9198 32.9518 35.7695 30.8592 35.7695Z" fill="#EDA600"/>
<path d="M32.787 37.3856C29.4922 37.3856 21.8325 37.0118 21.8325 33.5485C21.8325 30.6385 27.3556 30.2061 30.6503 30.2061C33.5639 30.2061 36.0744 30.5286 36.1001 30.5322C36.122 30.5359 36.1477 30.5359 36.1697 30.5359C37.698 30.5359 39.4791 31.2909 39.4791 33.4202C39.4791 35.4359 37.9032 37.2684 36.1697 37.2684H36.1257C36.111 37.272 34.7001 37.3856 32.787 37.3856Z" fill="url(#paint4_radial_1110_1004)"/>
<path d="M30.65 29.6602V30.7596C33.5196 30.7596 36.0045 31.0785 36.0264 31.0821C36.0741 31.0895 36.1217 31.0895 36.1694 31.0895C37.5034 31.0895 38.9291 31.7015 38.9291 33.424C38.9291 35.1209 37.5877 36.7225 36.1694 36.7225C36.1401 36.7225 36.1107 36.7225 36.0777 36.7261C36.0631 36.7261 34.6741 36.8397 32.783 36.8397C30.7856 36.8397 27.9306 36.7115 25.6694 36.1104C23.4887 35.5277 22.3819 34.6664 22.3819 33.556C22.3819 33.2151 22.3819 32.178 24.7055 31.4486C26.1531 30.9942 28.1505 30.7633 30.6463 30.7633L30.65 29.6602ZM30.65 29.6602C26.4134 29.6602 21.2825 30.3272 21.2825 33.5523C21.2825 37.3528 28.3924 37.9392 32.7867 37.9392C34.751 37.9392 36.1694 37.8219 36.1694 37.8219C38.2364 37.8219 40.0285 35.6853 40.0285 33.424C40.0285 31.1628 38.2364 29.99 36.1694 29.99C36.1694 29.99 33.6296 29.6602 30.65 29.6602Z" fill="#EDA600"/>
<path d="M7.37788 40.5307L5.62239 33.604L4.8894 39.8344L7.37788 40.5307Z" fill="#EDA600"/>
<defs>
<radialGradient id="paint0_radial_1110_1004" cx="0" cy="0" r="1" gradientUnits="userSpaceOnUse" gradientTransform="translate(16.1662 9.92873) rotate(90.125) scale(31.8992 25.1142)">
<stop offset="0.6" stop-color="#FFCA28"/>
<stop offset="1" stop-color="#FFB300"/>
</radialGradient>
<radialGradient id="paint1_radial_1110_1004" cx="0" cy="0" r="1" gradientUnits="userSpaceOnUse" gradientTransform="translate(34.9242 19.9474) rotate(176.727) scale(10.3613 5.06996)">
<stop offset="0.5993" stop-color="#FFCA28"/>
<stop offset="1" stop-color="#FFB300"/>
</radialGradient>
<radialGradient id="paint2_radial_1110_1004" cx="0" cy="0" r="1" gradientUnits="userSpaceOnUse" gradientTransform="translate(36.5607 27.0493) rotate(-179.936) scale(11.6611 4.67629)">
<stop offset="0.5993" stop-color="#FFCA28"/>
<stop offset="1" stop-color="#FFB300"/>
</radialGradient>
<radialGradient id="paint3_radial_1110_1004" cx="0" cy="0" r="1" gradientUnits="userSpaceOnUse" gradientTransform="translate(34.2871 39.6857) rotate(-179.726) scale(9.7931 5.09854)">
<stop offset="0.5993" stop-color="#FFCA28"/>
<stop offset="1" stop-color="#FFB300"/>
</radialGradient>
<radialGradient id="paint4_radial_1110_1004" cx="0" cy="0" r="1" gradientUnits="userSpaceOnUse" gradientTransform="translate(35.6809 33.7085) rotate(-179.934) scale(11.1574 4.64088)">
<stop offset="0.5993" stop-color="#FFCA28"/>
<stop offset="1" stop-color="#FFB300"/>
</radialGradient>
</defs>
</svg>
